<?xml version="1.0" encoding="utf-8"?>
<!-- Generator: Adobe Illustrator 26.1.0, SVG Export Plug-In . SVG Version: 6.00 Build 0)  -->
<svg version="1.1" id="Слой_1" xmlns="http://www.w3.org/2000/svg" xmlns:xlink="http://www.w3.org/1999/xlink" x="0px" y="0px"
	 viewBox="0 0 100 100" style="enable-background:new 0 0 100 100;" xml:space="preserve">
<style type="text/css">
	.st0{fill:#191919;}
	.st1{fill:#FFFFFF;}
</style>
<circle class="st0" cx="50" cy="50" r="50"/>
<g>
	<path class="st1" d="M25.5,80.7c0.6,0,1.2-0.2,1.7-0.7l12.6-12.6c0.9-0.9,0.9-2.5,0-3.4c-0.9-0.9-2.4-0.9-3.4,0L23.8,76.6
		c-0.9,0.9-0.9,2.5,0,3.4C24.3,80.5,24.9,80.7,25.5,80.7z"/>
	<path class="st1" d="M19,84.1c0.4,0.4,0.9,0.6,1.4,0.6c0.6,0,1.2-0.2,1.6-0.7c0.8-0.9,0.7-2.2-0.1-3C13.1,73,8,61.6,8,49.7
		C8,26.5,26.8,7.6,50,7.6c23.2,0,42,18.9,42,42.1c0,9.2-3.7,18.5-10.4,26.5L56.5,50.8l3.8-3.8c3.4,2,7.7,2.3,9.8,2.3
		c0.5,0,0.8,0,1,0c0.7,0,1.3-0.4,1.7-0.9l10.4-13.2c0.8-1.1,0.6-2.6-0.4-3.4c-1-0.8-2.6-0.6-3.4,0.4l-9.7,12.4
		c-1.5,0-3.9-0.3-5.9-1.1l13.7-13.7c0.9-0.9,0.9-2.5,0-3.4c-0.9-0.9-2.4-0.9-3.4,0L60.4,40.1c-0.8-1.9-1-4.3-1-5.9l12.6-9.7
		c1-0.8,1.3-2.3,0.5-3.4c-0.8-1.1-2.3-1.3-3.4-0.5L55.5,31.1c-0.5,0.4-0.9,1.1-0.9,1.8c0,0.7-0.3,6.6,2.3,10.8l-3.8,3.8L26.8,20.9
		c-0.4-0.5-1-0.7-1.7-0.7c-0.6,0-1.3,0.3-1.7,0.7l-0.3,0.4c-0.4,0.4-0.6,0.9-0.7,1.5c0,0.7-0.1,1.5-0.1,2.2c0,8,4,17.3,11.8,27.7
		c5.6,7.6,11.2,13,11.4,13.2c0.5,0.5,1.2,0.7,1.9,0.6l4.7-0.5c1.3-0.2,2.3-1.3,2.1-2.7c-0.2-1.3-1.4-2.3-2.7-2.1L48,61.6
		C44.4,58,29.6,42.4,27.4,28.3L79.6,81c0.2,0.2,0.5,0.4,0.8,0.5c0.9,0.5,2,0.4,2.6-0.4c8.5-9.2,13.2-20.4,13.2-31.4
		C96.3,24.1,75.5,3.3,50,3.3C24.5,3.3,3.7,24.1,3.7,49.7C3.7,62.8,9.3,75.3,19,84.1z"/>
</g>
</svg>
